<svg xmlns="http://www.w3.org/2000/svg" width="250" height="250" fill="none" viewBox="0 0 250 250"><defs><clipPath id="clip_path_1"><rect width="250" height="250" rx="32"/></clipPath></defs><g clip-path="url(#clip_path_1)"><path fill="#f5f5f5" fill-rule="evenodd" d="M0 0h250v250H0z"/><path fill="#0d0d0d" d="M34.277 181.924c1.48 0 2.277-.91 2.277-2.732V70.809c0-1.821-.797-2.732-2.277-2.732S32 68.988 32 70.809v108.383c0 1.821.797 2.732 2.277 2.732m64.308-53.28c0-14.573 6.376-29.373 13.55-37.57 5.806-6.717 15.826-13.434 27.098-13.434 11.841 0 17.648 8.994 17.648 21.29 0 1.024-.342 4.667-.342 5.692s.684 1.594 2.164 1.594c.569 0 1.024-.114 1.366-.228.57-.797.91-1.594 1.139-2.39l7.059-28.804c0-1.025-.57-1.594-1.708-1.594-.456 0-1.139.456-2.05 1.48l-7.4 8.311c-4.44-6.49-10.703-9.79-18.787-9.79-6.262 0-12.41 1.48-18.673 4.325-12.638 5.92-21.86 15.256-27.782 28.007q-4.44 9.392-4.44 19.126c0 9.108 2.846 16.508 8.653 22.428s13.208 8.88 22.317 8.88c8.994 0 17.192-3.302 24.593-9.79 3.074-2.62 5.693-5.807 7.856-9.336 3.075-5.123 4.669-8.653 4.669-10.816 0-1.024-.57-1.594-1.822-1.594-1.025 0-1.594.456-1.822 1.48-2.39 7.4-6.148 13.32-11.272 17.533-6.49 5.35-13.321 8.083-20.38 8.083-13.664 0-21.634-9.222-21.634-22.883m117.138 53.28c1.48 0 2.277-.91 2.277-2.732V70.809c0-1.821-.797-2.732-2.277-2.732s-2.277.911-2.277 2.732v108.383c0 1.821.797 2.732 2.277 2.732"/></g></svg>